<mxfile host="app.diagrams.net" modified="2023-04-21T05:35:19.231Z" agent="Mozilla/5.0 (Windows NT 10.0; Win64; x64) AppleWebKit/537.36 (KHTML, like Gecko) Chrome/112.0.0.0 Safari/537.36" etag="OviOBQt6wOBv0gsb7bFC" version="21.2.1" type="device">
  <diagram name="페이지-1" id="hX1_70TNEH1RMFsXH9jB">
    <mxGraphModel dx="1687" dy="3161" grid="1" gridSize="10" guides="1" tooltips="1" connect="1" arrows="1" fold="1" page="1" pageScale="1" pageWidth="3300" pageHeight="2339" math="0" shadow="0">
      <root>
        <mxCell id="0" />
        <mxCell id="1" parent="0" />
        <mxCell id="RjzVJgwjun384Nuny4Mh-10" style="rounded=0;orthogonalLoop=1;jettySize=auto;html=1;entryX=0.5;entryY=0;entryDx=0;entryDy=0;exitX=0.538;exitY=1;exitDx=0;exitDy=0;exitPerimeter=0;" edge="1" parent="1" source="RjzVJgwjun384Nuny4Mh-1" target="RjzVJgwjun384Nuny4Mh-3">
          <mxGeometry relative="1" as="geometry">
            <mxPoint x="420" y="110" as="sourcePoint" />
          </mxGeometry>
        </mxCell>
        <mxCell id="RjzVJgwjun384Nuny4Mh-32" value="" style="rounded=0;orthogonalLoop=1;jettySize=auto;html=1;" edge="1" parent="1" source="RjzVJgwjun384Nuny4Mh-1" target="RjzVJgwjun384Nuny4Mh-31">
          <mxGeometry relative="1" as="geometry" />
        </mxCell>
        <mxCell id="RjzVJgwjun384Nuny4Mh-1" value="학생" style="rounded=1;arcSize=10;whiteSpace=wrap;html=1;align=center;rotation=0;fillColor=#f8cecc;strokeColor=#b85450;" vertex="1" parent="1">
          <mxGeometry x="550" y="20" width="160" height="50" as="geometry" />
        </mxCell>
        <mxCell id="RjzVJgwjun384Nuny4Mh-2" value="이름" style="ellipse;whiteSpace=wrap;html=1;align=center;" vertex="1" parent="1">
          <mxGeometry x="350" y="230" width="140" height="55" as="geometry" />
        </mxCell>
        <mxCell id="RjzVJgwjun384Nuny4Mh-3" value="학번" style="ellipse;whiteSpace=wrap;html=1;align=center;fontStyle=4;" vertex="1" parent="1">
          <mxGeometry x="180" y="220" width="140" height="55" as="geometry" />
        </mxCell>
        <mxCell id="RjzVJgwjun384Nuny4Mh-5" value="학과" style="ellipse;whiteSpace=wrap;html=1;align=center;" vertex="1" parent="1">
          <mxGeometry x="510" y="230" width="140" height="55" as="geometry" />
        </mxCell>
        <mxCell id="RjzVJgwjun384Nuny4Mh-6" value="학년" style="ellipse;whiteSpace=wrap;html=1;align=center;" vertex="1" parent="1">
          <mxGeometry x="680" y="230" width="140" height="55" as="geometry" />
        </mxCell>
        <mxCell id="RjzVJgwjun384Nuny4Mh-7" value="주소" style="ellipse;whiteSpace=wrap;html=1;align=center;" vertex="1" parent="1">
          <mxGeometry x="1000" y="220" width="140" height="55" as="geometry" />
        </mxCell>
        <mxCell id="RjzVJgwjun384Nuny4Mh-8" value="전화번호" style="ellipse;whiteSpace=wrap;html=1;align=center;" vertex="1" parent="1">
          <mxGeometry x="840" y="220" width="140" height="55" as="geometry" />
        </mxCell>
        <mxCell id="RjzVJgwjun384Nuny4Mh-12" style="rounded=0;orthogonalLoop=1;jettySize=auto;html=1;entryX=0.5;entryY=0;entryDx=0;entryDy=0;exitX=0.5;exitY=1;exitDx=0;exitDy=0;" edge="1" parent="1" source="RjzVJgwjun384Nuny4Mh-1" target="RjzVJgwjun384Nuny4Mh-2">
          <mxGeometry relative="1" as="geometry">
            <mxPoint x="620" y="60" as="sourcePoint" />
            <mxPoint x="260" y="150" as="targetPoint" />
          </mxGeometry>
        </mxCell>
        <mxCell id="RjzVJgwjun384Nuny4Mh-13" style="rounded=0;orthogonalLoop=1;jettySize=auto;html=1;entryX=0.5;entryY=0;entryDx=0;entryDy=0;exitX=0.538;exitY=0.986;exitDx=0;exitDy=0;exitPerimeter=0;" edge="1" parent="1" source="RjzVJgwjun384Nuny4Mh-1" target="RjzVJgwjun384Nuny4Mh-5">
          <mxGeometry relative="1" as="geometry">
            <mxPoint x="360" y="90" as="sourcePoint" />
            <mxPoint x="420" y="150" as="targetPoint" />
          </mxGeometry>
        </mxCell>
        <mxCell id="RjzVJgwjun384Nuny4Mh-14" style="rounded=0;orthogonalLoop=1;jettySize=auto;html=1;entryX=0.5;entryY=0;entryDx=0;entryDy=0;exitX=0.538;exitY=0.986;exitDx=0;exitDy=0;exitPerimeter=0;" edge="1" parent="1" source="RjzVJgwjun384Nuny4Mh-1" target="RjzVJgwjun384Nuny4Mh-8">
          <mxGeometry relative="1" as="geometry">
            <mxPoint x="710" y="80" as="sourcePoint" />
            <mxPoint x="865" y="140" as="targetPoint" />
          </mxGeometry>
        </mxCell>
        <mxCell id="RjzVJgwjun384Nuny4Mh-15" style="rounded=0;orthogonalLoop=1;jettySize=auto;html=1;exitX=0.564;exitY=0.986;exitDx=0;exitDy=0;exitPerimeter=0;" edge="1" parent="1" source="RjzVJgwjun384Nuny4Mh-1" target="RjzVJgwjun384Nuny4Mh-6">
          <mxGeometry relative="1" as="geometry">
            <mxPoint x="720" y="90" as="sourcePoint" />
            <mxPoint x="875" y="150" as="targetPoint" />
          </mxGeometry>
        </mxCell>
        <mxCell id="RjzVJgwjun384Nuny4Mh-16" style="rounded=0;orthogonalLoop=1;jettySize=auto;html=1;entryX=0.354;entryY=0;entryDx=0;entryDy=0;entryPerimeter=0;exitX=0.5;exitY=1;exitDx=0;exitDy=0;" edge="1" parent="1" source="RjzVJgwjun384Nuny4Mh-1" target="RjzVJgwjun384Nuny4Mh-7">
          <mxGeometry relative="1" as="geometry">
            <mxPoint x="706" y="89" as="sourcePoint" />
            <mxPoint x="875" y="150" as="targetPoint" />
          </mxGeometry>
        </mxCell>
        <mxCell id="RjzVJgwjun384Nuny4Mh-18" style="rounded=0;orthogonalLoop=1;jettySize=auto;html=1;entryX=0.5;entryY=0;entryDx=0;entryDy=0;exitX=0.538;exitY=1;exitDx=0;exitDy=0;exitPerimeter=0;" edge="1" source="RjzVJgwjun384Nuny4Mh-19" target="RjzVJgwjun384Nuny4Mh-21" parent="1">
          <mxGeometry relative="1" as="geometry">
            <mxPoint x="1410" y="110" as="sourcePoint" />
          </mxGeometry>
        </mxCell>
        <mxCell id="RjzVJgwjun384Nuny4Mh-33" style="rounded=0;orthogonalLoop=1;jettySize=auto;html=1;entryX=1;entryY=1;entryDx=0;entryDy=0;" edge="1" parent="1" source="RjzVJgwjun384Nuny4Mh-19" target="RjzVJgwjun384Nuny4Mh-31">
          <mxGeometry relative="1" as="geometry" />
        </mxCell>
        <mxCell id="RjzVJgwjun384Nuny4Mh-19" value="과목" style="rounded=1;arcSize=10;whiteSpace=wrap;html=1;align=center;rotation=0;fillColor=#f8cecc;strokeColor=#b85450;" vertex="1" parent="1">
          <mxGeometry x="1540" y="20" width="160" height="50" as="geometry" />
        </mxCell>
        <mxCell id="RjzVJgwjun384Nuny4Mh-20" value="과목명" style="ellipse;whiteSpace=wrap;html=1;align=center;" vertex="1" parent="1">
          <mxGeometry x="1340" y="230" width="140" height="55" as="geometry" />
        </mxCell>
        <mxCell id="RjzVJgwjun384Nuny4Mh-21" value="과목코드" style="ellipse;whiteSpace=wrap;html=1;align=center;fontStyle=4;" vertex="1" parent="1">
          <mxGeometry x="1170" y="220" width="140" height="55" as="geometry" />
        </mxCell>
        <mxCell id="RjzVJgwjun384Nuny4Mh-22" value="담당교수" style="ellipse;whiteSpace=wrap;html=1;align=center;" vertex="1" parent="1">
          <mxGeometry x="1500" y="230" width="140" height="55" as="geometry" />
        </mxCell>
        <mxCell id="RjzVJgwjun384Nuny4Mh-23" value="강의실" style="ellipse;whiteSpace=wrap;html=1;align=center;" vertex="1" parent="1">
          <mxGeometry x="1670" y="230" width="140" height="55" as="geometry" />
        </mxCell>
        <mxCell id="RjzVJgwjun384Nuny4Mh-24" value="조교" style="ellipse;whiteSpace=wrap;html=1;align=center;" vertex="1" parent="1">
          <mxGeometry x="1990" y="220" width="140" height="55" as="geometry" />
        </mxCell>
        <mxCell id="RjzVJgwjun384Nuny4Mh-25" value="연락처" style="ellipse;whiteSpace=wrap;html=1;align=center;" vertex="1" parent="1">
          <mxGeometry x="1830" y="220" width="140" height="55" as="geometry" />
        </mxCell>
        <mxCell id="RjzVJgwjun384Nuny4Mh-26" style="rounded=0;orthogonalLoop=1;jettySize=auto;html=1;entryX=0.5;entryY=0;entryDx=0;entryDy=0;exitX=0.5;exitY=1;exitDx=0;exitDy=0;" edge="1" source="RjzVJgwjun384Nuny4Mh-19" target="RjzVJgwjun384Nuny4Mh-20" parent="1">
          <mxGeometry relative="1" as="geometry">
            <mxPoint x="1610" y="60" as="sourcePoint" />
            <mxPoint x="1250" y="150" as="targetPoint" />
          </mxGeometry>
        </mxCell>
        <mxCell id="RjzVJgwjun384Nuny4Mh-27" style="rounded=0;orthogonalLoop=1;jettySize=auto;html=1;entryX=0.5;entryY=0;entryDx=0;entryDy=0;exitX=0.538;exitY=0.986;exitDx=0;exitDy=0;exitPerimeter=0;" edge="1" source="RjzVJgwjun384Nuny4Mh-19" target="RjzVJgwjun384Nuny4Mh-22" parent="1">
          <mxGeometry relative="1" as="geometry">
            <mxPoint x="1350" y="90" as="sourcePoint" />
            <mxPoint x="1410" y="150" as="targetPoint" />
          </mxGeometry>
        </mxCell>
        <mxCell id="RjzVJgwjun384Nuny4Mh-28" style="rounded=0;orthogonalLoop=1;jettySize=auto;html=1;entryX=0.5;entryY=0;entryDx=0;entryDy=0;exitX=0.538;exitY=0.986;exitDx=0;exitDy=0;exitPerimeter=0;" edge="1" source="RjzVJgwjun384Nuny4Mh-19" target="RjzVJgwjun384Nuny4Mh-25" parent="1">
          <mxGeometry relative="1" as="geometry">
            <mxPoint x="1700" y="80" as="sourcePoint" />
            <mxPoint x="1855" y="140" as="targetPoint" />
          </mxGeometry>
        </mxCell>
        <mxCell id="RjzVJgwjun384Nuny4Mh-29" style="rounded=0;orthogonalLoop=1;jettySize=auto;html=1;exitX=0.564;exitY=0.986;exitDx=0;exitDy=0;exitPerimeter=0;" edge="1" source="RjzVJgwjun384Nuny4Mh-19" target="RjzVJgwjun384Nuny4Mh-23" parent="1">
          <mxGeometry relative="1" as="geometry">
            <mxPoint x="1710" y="90" as="sourcePoint" />
            <mxPoint x="1865" y="150" as="targetPoint" />
          </mxGeometry>
        </mxCell>
        <mxCell id="RjzVJgwjun384Nuny4Mh-30" style="rounded=0;orthogonalLoop=1;jettySize=auto;html=1;entryX=0.354;entryY=0;entryDx=0;entryDy=0;entryPerimeter=0;exitX=0.5;exitY=1;exitDx=0;exitDy=0;" edge="1" source="RjzVJgwjun384Nuny4Mh-19" target="RjzVJgwjun384Nuny4Mh-24" parent="1">
          <mxGeometry relative="1" as="geometry">
            <mxPoint x="1696" y="89" as="sourcePoint" />
            <mxPoint x="1865" y="150" as="targetPoint" />
          </mxGeometry>
        </mxCell>
        <mxCell id="RjzVJgwjun384Nuny4Mh-31" value="수강신청" style="rhombus;whiteSpace=wrap;html=1;fillColor=#dae8fc;strokeColor=#6c8ebf;rounded=1;arcSize=10;" vertex="1" parent="1">
          <mxGeometry x="1020" y="-140" width="250" height="140" as="geometry" />
        </mxCell>
      </root>
    </mxGraphModel>
  </diagram>
</mxfile>
